<svg xmlns="http://www.w3.org/2000/svg" width="24" height="24"><g data-name="그룹 660"><path data-name="패스 1360" d="M15.369.5H3v23h18V6.405z" fill="none" stroke="#000" stroke-miterlimit="10"/><path data-name="패스 1361" d="M20.5 6.5H15V0" fill="none" stroke="#000" stroke-miterlimit="10"/><path data-name="선 186" fill="none" stroke="#000" stroke-miterlimit="10" d="M3 10.5h18"/><path data-name="선 187" fill="none" stroke="#000" stroke-miterlimit="10" d="M3 19.5h18"/><g data-name="그룹 659"><path data-name="패스 1362" d="M9.9 15.537H8.47v1.506h-.617v-3.555h2.257v.5H8.47v1.057H9.9z"/><path data-name="패스 1363" d="M12.457 16.127a.431.431 0 00-.164-.361 2.006 2.006 0 00-.6-.256 2.889 2.889 0 01-.683-.288.91.91 0 01-.486-.8.867.867 0 01.35-.708 1.416 1.416 0 01.91-.279 1.535 1.535 0 01.661.137 1.075 1.075 0 01.456.39.983.983 0 01.166.559h-.615a.557.557 0 00-.174-.435.721.721 0 00-.5-.157.751.751 0 00-.47.13.429.429 0 00-.167.361.39.39 0 00.181.325 2.07 2.07 0 00.6.254 2.753 2.753 0 01.667.281 1.063 1.063 0 01.368.362.937.937 0 01.117.477.843.843 0 01-.341.706 1.474 1.474 0 01-.923.263 1.737 1.737 0 01-.709-.143 1.181 1.181 0 01-.5-.394.984.984 0 01-.18-.586h.618a.579.579 0 00.2.469.885.885 0 00.575.166.761.761 0 00.484-.131.422.422 0 00.159-.342z"/><path data-name="패스 1364" d="M16.33 15.886a1.283 1.283 0 01-.42.887 1.434 1.434 0 01-.974.319 1.4 1.4 0 01-.749-.2 1.34 1.34 0 01-.5-.573 2.074 2.074 0 01-.182-.862v-.332a2.062 2.062 0 01.179-.886 1.347 1.347 0 01.51-.592 1.444 1.444 0 01.771-.207 1.375 1.375 0 01.947.319 1.334 1.334 0 01.418.9h-.615a.881.881 0 00-.224-.553.739.739 0 00-.526-.169.721.721 0 00-.619.294 1.471 1.471 0 00-.221.864v.315a1.557 1.557 0 00.206.88.686.686 0 00.605.3.8.8 0 00.546-.164.854.854 0 00.233-.544z"/></g></g></svg>