<svg xmlns="http://www.w3.org/2000/svg" width="80" height="80"><g data-name="icon"><g data-name="그룹 388" fill="none" stroke-miterlimit="10"><g data-name="패스 1117"><path d="M51.769 2H11v76h59V16.881z"/><path d="M14 5v70h53V18.305L50.7 5H14m-3-3h40.769L70 16.881V78H11V2z" fill="#000"/></g><path data-name="패스 1118" d="M49.5 4l.034 17.142 18.608-2.068" stroke="#000" stroke-width="3"/></g><g data-name="그룹 389"><g data-name="그룹 380"><path data-name="사각형 1656" d="M28 35h3v3h-3z"/><path data-name="사각형 1657" d="M31 32h3v3h-3z"/><path data-name="사각형 1658" d="M25 32h3v3h-3z"/><path data-name="사각형 1659" d="M31 38h3v3h-3z"/><path data-name="사각형 1660" d="M25 38h3v3h-3z"/></g><g data-name="그룹 382"><path data-name="사각형 1656" d="M51 35h3v3h-3z"/><path data-name="사각형 1657" d="M54 32h3v3h-3z"/><path data-name="사각형 1658" d="M48 32h3v3h-3z"/><path data-name="사각형 1659" d="M54 38h3v3h-3z"/><path data-name="사각형 1660" d="M48 38h3v3h-3z"/></g><path data-name="패스 1111" d="M25 58.455h31.7" fill="none" stroke="#000" stroke-width="3"/></g></g></svg>