<svg xmlns="http://www.w3.org/2000/svg" width="25" height="25"><g data-name="icon"><path data-name="패스 1251" d="M21.203 2.5v21h-18v-21z" fill="none" stroke="#000"/><path data-name="선 78" fill="none" stroke="#000" stroke-miterlimit="10" d="M20.703 5.5h-17"/><path data-name="선 79" fill="none" stroke="#000" stroke-miterlimit="10" d="M20.703 20.5h-17"/><path data-name="선 80" fill="none" stroke="#000" stroke-miterlimit="10" d="M18.203 1v3"/><path data-name="선 81" fill="none" stroke="#000" stroke-miterlimit="10" d="M14.203 1v3"/><path data-name="선 82" fill="none" stroke="#000" stroke-miterlimit="10" d="M10.203 1v3"/><path data-name="선 83" fill="none" stroke="#000" stroke-miterlimit="10" d="M6.203 1v3"/><path data-name="패스 1241" d="M3.297 5.516L1.003 22.5h1.7" fill="none" stroke="#000" stroke-miterlimit="10"/><path data-name="패스 1242" d="M21.053 5.557l2.35 16.943h-1.7" fill="none" stroke="#000" stroke-miterlimit="10"/><g data-name="그룹 431"><path data-name="사각형 1733" d="M6.703 9h1v1h-1z"/><path data-name="사각형 1734" d="M11.703 9h1v1h-1z"/><path data-name="사각형 1735" d="M16.703 9h1v1h-1z"/><path data-name="사각형 1736" d="M6.703 13h1v1h-1z"/><path data-name="사각형 1737" d="M11.703 13h1v1h-1z"/><path data-name="사각형 1738" d="M16.703 13h1v1h-1z"/><path data-name="사각형 1739" d="M6.703 17h1v1h-1z"/><path data-name="사각형 1740" d="M11.703 17h1v1h-1z"/><path data-name="사각형 1741" d="M16.703 17h1v1h-1z"/></g></g></svg>