<svg xmlns="http://www.w3.org/2000/svg" width="24" height="24" viewBox="0 0 24 24">
  <g id="icon" transform="translate(-345 -666)">
    <rect id="grid" width="24" height="24" transform="translate(345 666)" fill="#ff2b2b" opacity="0"/>
    <g id="그룹_660" data-name="그룹 660" transform="translate(-109.5 331)">
      <path id="패스_1360" data-name="패스 1360" d="M469.869,335.5H457.5v23h18V341.405Z" fill="none" stroke="#000" stroke-miterlimit="10" stroke-width="1"/>
      <path id="패스_1361" data-name="패스 1361" d="M475,341.5h-5.5V335" fill="none" stroke="#000" stroke-miterlimit="10" stroke-width="1"/>
      <line id="선_186" data-name="선 186" x2="18" transform="translate(457.5 345.5)" fill="none" stroke="#000" stroke-miterlimit="10" stroke-width="1"/>
      <line id="선_187" data-name="선 187" x2="18" transform="translate(457.5 354.5)" fill="none" stroke="#000" stroke-miterlimit="10" stroke-width="1"/>
      <g id="그룹_659" data-name="그룹 659">
        <path id="패스_1362" data-name="패스 1362" d="M464.4,350.537H462.97v1.506h-.617v-3.555h2.257v.5h-1.64v1.057H464.4Z"/>
        <path id="패스_1363" data-name="패스 1363" d="M466.957,351.127a.431.431,0,0,0-.164-.361,2.006,2.006,0,0,0-.6-.256,2.889,2.889,0,0,1-.683-.288.91.91,0,0,1-.486-.8.867.867,0,0,1,.35-.708,1.416,1.416,0,0,1,.91-.279,1.535,1.535,0,0,1,.661.137,1.075,1.075,0,0,1,.456.39.983.983,0,0,1,.166.559h-.615a.557.557,0,0,0-.174-.435.721.721,0,0,0-.5-.157.751.751,0,0,0-.47.13.429.429,0,0,0-.167.361.39.39,0,0,0,.181.325,2.07,2.07,0,0,0,.6.254,2.753,2.753,0,0,1,.667.281,1.063,1.063,0,0,1,.368.362.937.937,0,0,1,.117.477.843.843,0,0,1-.341.706,1.474,1.474,0,0,1-.923.263,1.737,1.737,0,0,1-.709-.143,1.181,1.181,0,0,1-.5-.394.984.984,0,0,1-.18-.586h.618a.579.579,0,0,0,.2.469.885.885,0,0,0,.575.166.761.761,0,0,0,.484-.131A.422.422,0,0,0,466.957,351.127Z"/>
        <path id="패스_1364" data-name="패스 1364" d="M470.83,350.886a1.283,1.283,0,0,1-.42.887,1.434,1.434,0,0,1-.974.319,1.4,1.4,0,0,1-.749-.2,1.34,1.34,0,0,1-.5-.573,2.074,2.074,0,0,1-.182-.862v-.332a2.062,2.062,0,0,1,.179-.886,1.347,1.347,0,0,1,.51-.592,1.444,1.444,0,0,1,.771-.207,1.375,1.375,0,0,1,.947.319,1.334,1.334,0,0,1,.418.9h-.615a.881.881,0,0,0-.224-.553.739.739,0,0,0-.526-.169.721.721,0,0,0-.619.294,1.471,1.471,0,0,0-.221.864v.315a1.557,1.557,0,0,0,.206.88.686.686,0,0,0,.605.3.8.8,0,0,0,.546-.164.854.854,0,0,0,.233-.544Z"/>
      </g>
    </g>
  </g>
</svg>
