<svg xmlns="http://www.w3.org/2000/svg" width="163.8" height="12" viewBox="0 0 163.8 12">
  <path id="LOGO" d="M7575.217,1412.993a6.751,6.751,0,0,1-2.551-1.463l.908-1.375a9.053,9.053,0,0,0,2.433,1.249,8.4,8.4,0,0,0,2.6.4,5.405,5.405,0,0,0,2.708-.546,1.659,1.659,0,0,0,.921-1.478,1.34,1.34,0,0,0-.31-.948,1.944,1.944,0,0,0-.9-.506,7.376,7.376,0,0,0-1.452-.245q-.859-.07-1.96-.15a18.682,18.682,0,0,1-2.014-.261,4.619,4.619,0,0,1-1.437-.5,2.188,2.188,0,0,1-.867-.87,2.851,2.851,0,0,1-.289-1.359,2.972,2.972,0,0,1,1.293-2.546,6.308,6.308,0,0,1,3.726-.932,8.515,8.515,0,0,1,5.391,1.691l-1,1.281a9.388,9.388,0,0,0-2.22-.98,8.3,8.3,0,0,0-2.29-.317,5.193,5.193,0,0,0-2.351.42,1.263,1.263,0,0,0-.8,1.131,1.168,1.168,0,0,0,.867,1.106,3.652,3.652,0,0,0,.915.245c.333.047.7.084,1.1.11l1.286.087q.687.048,1.443.158a5.355,5.355,0,0,1,2.764,1.044,2.772,2.772,0,0,1,.894,2.213,3.266,3.266,0,0,1-1.382,2.814,6.886,6.886,0,0,1-4.049,1A11.145,11.145,0,0,1,7575.217,1412.993Zm159.338.2-2.7-4.363h-5.032v4.363h-1.65v-11.447h7.852a3.183,3.183,0,0,1,2.468.964,3.75,3.75,0,0,1,.887,2.641,4.3,4.3,0,0,1-.192,1.343,2.992,2.992,0,0,1-.544,1,2.743,2.743,0,0,1-.825.673,3.71,3.71,0,0,1-1.023.364l2.667,4.458Zm-7.728-6.072h5.954a2.015,2.015,0,0,0,1.422-.454,1.708,1.708,0,0,0,.489-1.316q0-1.9-2.062-1.9h-5.8Zm-15.131,6.072v-11.447h10.038v1.708h-8.387v2.957h5.829v1.708h-5.829v3.367h8.772v1.707Zm-14.021,0v-11.447h7.892a3.623,3.623,0,0,1,1.376.253,2.862,2.862,0,0,1,1.045.719,3.248,3.248,0,0,1,.66,1.131,4.419,4.419,0,0,1,.234,1.471,3.486,3.486,0,0,1-.922,2.608,3.718,3.718,0,0,1-2.708.9h-5.927v4.363Zm1.65-6.072h5.954a2.014,2.014,0,0,0,1.43-.454,1.724,1.724,0,0,0,.481-1.316q0-1.9-2.021-1.9h-5.844Zm-6.211,6.072-1.155-2.562h-6.7l-1.155,2.562h-1.8l5.267-11.447h2.075l5.267,11.447Zm-7.04-4.269h5.074l-2.531-5.534Zm-15.565,4.269v-11.447h7.894a3.618,3.618,0,0,1,1.375.253,2.871,2.871,0,0,1,1.045.719,3.272,3.272,0,0,1,.66,1.131,4.419,4.419,0,0,1,.233,1.471,3.49,3.49,0,0,1-.921,2.608,3.721,3.721,0,0,1-2.709.9h-5.926v4.363Zm1.651-6.072h5.953a2.014,2.014,0,0,0,1.43-.454,1.726,1.726,0,0,0,.481-1.316q0-1.9-2.021-1.9h-5.843Zm-11.069,6.072-1.155-2.562h-6.7l-1.155,2.562h-1.8l5.267-11.447h2.076l5.267,11.447Zm-7.04-4.269h5.073l-2.53-5.534Zm-8.185,4.269v-5.075h-7.976v5.075h-1.649v-11.431h1.649v4.649h7.976v-4.649h1.65v11.431Zm-17.8,0-2.489-9.565-2.489,9.565h-2.1l-3.286-11.447h1.843l2.5,9.582,2.489-9.582h2.09l2.488,9.582,2.5-9.582h1.843l-3.26,11.447Zm-14.8,0v-9.36h-.042l-5.17,7.463-5.128-7.463h-.042v9.36h-1.649v-11.447h2.049l4.785,6.925,4.8-6.925h2.049v11.447Zm-16.593,0-1.155-2.562h-6.7l-1.155,2.562h-1.8l5.267-11.447h2.076l5.267,11.447Zm-7.04-4.269h5.073l-2.529-5.534Z" transform="translate(-7572.667 -1401.459)" fill="#fff"/>
</svg>
