<svg xmlns="http://www.w3.org/2000/svg" width="1920" height="1080" viewBox="0 0 1920 1080">
  <path id="패스_1063" data-name="패스 1063" d="M869.81,551.38q-2.535-1.905-7.98-1.91H852.6V565.6h9.76q5.055-.09,7.51-2.14a7.134,7.134,0,0,0,2.46-5.82Q872.33,553.29,869.81,551.38Zm3.45,28.74a6.85,6.85,0,0,0-4.57-4.59,13.435,13.435,0,0,0-4.31-.62H852.6v17.27h11.3a13.658,13.658,0,0,0,4.39-.63,8.791,8.791,0,0,0,3.08-1.76,7.04,7.04,0,0,0,1.82-2.64,8.912,8.912,0,0,0,.59-3.32A12.23,12.23,0,0,0,873.26,580.12Zm0,0a6.85,6.85,0,0,0-4.57-4.59,13.435,13.435,0,0,0-4.31-.62H852.6v17.27h11.3a13.658,13.658,0,0,0,4.39-.63,8.791,8.791,0,0,0,3.08-1.76,7.04,7.04,0,0,0,1.82-2.64,8.912,8.912,0,0,0,.59-3.32A12.23,12.23,0,0,0,873.26,580.12Zm-3.45-28.74q-2.535-1.905-7.98-1.91H852.6V565.6h9.76q5.055-.09,7.51-2.14a7.134,7.134,0,0,0,2.46-5.82Q872.33,553.29,869.81,551.38Zm0,0q-2.535-1.905-7.98-1.91H852.6V565.6h9.76q5.055-.09,7.51-2.14a7.134,7.134,0,0,0,2.46-5.82Q872.33,553.29,869.81,551.38Zm3.45,28.74a6.85,6.85,0,0,0-4.57-4.59,13.435,13.435,0,0,0-4.31-.62H852.6v17.27h11.3a13.658,13.658,0,0,0,4.39-.63,8.791,8.791,0,0,0,3.08-1.76,7.04,7.04,0,0,0,1.82-2.64,8.912,8.912,0,0,0,.59-3.32A12.23,12.23,0,0,0,873.26,580.12Zm59.19-26.08a12.728,12.728,0,0,0-20.57,0q-3.6,5.235-3.6,15.29v2.9a37.4,37.4,0,0,0,.94,8.86,19.82,19.82,0,0,0,2.73,6.46,11.833,11.833,0,0,0,4.37,3.95,12.667,12.667,0,0,0,5.93,1.34,11.6,11.6,0,0,0,10.24-5.27q3.57-5.28,3.56-15.34v-2.9Q936.05,559.265,932.45,554.04Zm0,0a12.728,12.728,0,0,0-20.57,0q-3.6,5.235-3.6,15.29v2.9a37.4,37.4,0,0,0,.94,8.86,19.82,19.82,0,0,0,2.73,6.46,11.833,11.833,0,0,0,4.37,3.95,12.667,12.667,0,0,0,5.93,1.34,11.6,11.6,0,0,0,10.24-5.27q3.57-5.28,3.56-15.34v-2.9Q936.05,559.265,932.45,554.04Zm-59.19,26.08a6.85,6.85,0,0,0-4.57-4.59,13.435,13.435,0,0,0-4.31-.62H852.6v17.27h11.3a13.658,13.658,0,0,0,4.39-.63,8.791,8.791,0,0,0,3.08-1.76,7.04,7.04,0,0,0,1.82-2.64,8.912,8.912,0,0,0,.59-3.32A12.23,12.23,0,0,0,873.26,580.12Zm-3.45-28.74q-2.535-1.905-7.98-1.91H852.6V565.6h9.76q5.055-.09,7.51-2.14a7.134,7.134,0,0,0,2.46-5.82Q872.33,553.29,869.81,551.38Zm0,0q-2.535-1.905-7.98-1.91H852.6V565.6h9.76q5.055-.09,7.51-2.14a7.134,7.134,0,0,0,2.46-5.82Q872.33,553.29,869.81,551.38Zm3.45,28.74a6.85,6.85,0,0,0-4.57-4.59,13.435,13.435,0,0,0-4.31-.62H852.6v17.27h11.3a13.658,13.658,0,0,0,4.39-.63,8.791,8.791,0,0,0,3.08-1.76,7.04,7.04,0,0,0,1.82-2.64,8.912,8.912,0,0,0,.59-3.32A12.23,12.23,0,0,0,873.26,580.12Zm59.19-26.08a12.728,12.728,0,0,0-20.57,0q-3.6,5.235-3.6,15.29v2.9a37.4,37.4,0,0,0,.94,8.86,19.82,19.82,0,0,0,2.73,6.46,11.833,11.833,0,0,0,4.37,3.95,12.667,12.667,0,0,0,5.93,1.34,11.6,11.6,0,0,0,10.24-5.27q3.57-5.28,3.56-15.34v-2.9Q936.05,559.265,932.45,554.04Zm0,0a12.728,12.728,0,0,0-20.57,0q-3.6,5.235-3.6,15.29v2.9a37.4,37.4,0,0,0,.94,8.86,19.82,19.82,0,0,0,2.73,6.46,11.833,11.833,0,0,0,4.37,3.95,12.667,12.667,0,0,0,5.93,1.34,11.6,11.6,0,0,0,10.24-5.27q3.57-5.28,3.56-15.34v-2.9Q936.05,559.265,932.45,554.04Zm-59.19,26.08a6.85,6.85,0,0,0-4.57-4.59,13.435,13.435,0,0,0-4.31-.62H852.6v17.27h11.3a13.658,13.658,0,0,0,4.39-.63,8.791,8.791,0,0,0,3.08-1.76,7.04,7.04,0,0,0,1.82-2.64,8.912,8.912,0,0,0,.59-3.32A12.23,12.23,0,0,0,873.26,580.12Zm-3.45-28.74q-2.535-1.905-7.98-1.91H852.6V565.6h9.76q5.055-.09,7.51-2.14a7.134,7.134,0,0,0,2.46-5.82Q872.33,553.29,869.81,551.38Zm0,0q-2.535-1.905-7.98-1.91H852.6V565.6h9.76q5.055-.09,7.51-2.14a7.134,7.134,0,0,0,2.46-5.82Q872.33,553.29,869.81,551.38Zm3.45,28.74a6.85,6.85,0,0,0-4.57-4.59,13.435,13.435,0,0,0-4.31-.62H852.6v17.27h11.3a13.658,13.658,0,0,0,4.39-.63,8.791,8.791,0,0,0,3.08-1.76,7.04,7.04,0,0,0,1.82-2.64,8.912,8.912,0,0,0,.59-3.32A12.23,12.23,0,0,0,873.26,580.12Zm59.19-26.08a12.728,12.728,0,0,0-20.57,0q-3.6,5.235-3.6,15.29v2.9a37.4,37.4,0,0,0,.94,8.86,19.82,19.82,0,0,0,2.73,6.46,11.833,11.833,0,0,0,4.37,3.95,12.667,12.667,0,0,0,5.93,1.34,11.6,11.6,0,0,0,10.24-5.27q3.57-5.28,3.56-15.34v-2.9Q936.05,559.265,932.45,554.04Zm0,0a12.728,12.728,0,0,0-20.57,0q-3.6,5.235-3.6,15.29v2.9a37.4,37.4,0,0,0,.94,8.86,19.82,19.82,0,0,0,2.73,6.46,11.833,11.833,0,0,0,4.37,3.95,12.667,12.667,0,0,0,5.93,1.34,11.6,11.6,0,0,0,10.24-5.27q3.57-5.28,3.56-15.34v-2.9Q936.05,559.265,932.45,554.04Zm-59.19,26.08a6.85,6.85,0,0,0-4.57-4.59,13.435,13.435,0,0,0-4.31-.62H852.6v17.27h11.3a13.658,13.658,0,0,0,4.39-.63,8.791,8.791,0,0,0,3.08-1.76,7.04,7.04,0,0,0,1.82-2.64,8.912,8.912,0,0,0,.59-3.32A12.23,12.23,0,0,0,873.26,580.12Zm-3.45-28.74q-2.535-1.905-7.98-1.91H852.6V565.6h9.76q5.055-.09,7.51-2.14a7.134,7.134,0,0,0,2.46-5.82Q872.33,553.29,869.81,551.38Zm0,0q-2.535-1.905-7.98-1.91H852.6V565.6h9.76q5.055-.09,7.51-2.14a7.134,7.134,0,0,0,2.46-5.82Q872.33,553.29,869.81,551.38Zm3.45,28.74a6.85,6.85,0,0,0-4.57-4.59,13.435,13.435,0,0,0-4.31-.62H852.6v17.27h11.3a13.658,13.658,0,0,0,4.39-.63,8.791,8.791,0,0,0,3.08-1.76,7.04,7.04,0,0,0,1.82-2.64,8.912,8.912,0,0,0,.59-3.32A12.23,12.23,0,0,0,873.26,580.12Zm59.19-26.08a12.728,12.728,0,0,0-20.57,0q-3.6,5.235-3.6,15.29v2.9a37.4,37.4,0,0,0,.94,8.86,19.82,19.82,0,0,0,2.73,6.46,11.833,11.833,0,0,0,4.37,3.95,12.667,12.667,0,0,0,5.93,1.34,11.6,11.6,0,0,0,10.24-5.27q3.57-5.28,3.56-15.34v-2.9Q936.05,559.265,932.45,554.04Zm0,0a12.728,12.728,0,0,0-20.57,0q-3.6,5.235-3.6,15.29v2.9a37.4,37.4,0,0,0,.94,8.86,19.82,19.82,0,0,0,2.73,6.46,11.833,11.833,0,0,0,4.37,3.95,12.667,12.667,0,0,0,5.93,1.34,11.6,11.6,0,0,0,10.24-5.27q3.57-5.28,3.56-15.34v-2.9Q936.05,559.265,932.45,554.04Zm-59.19,26.08a6.85,6.85,0,0,0-4.57-4.59,13.435,13.435,0,0,0-4.31-.62H852.6v17.27h11.3a13.658,13.658,0,0,0,4.39-.63,8.791,8.791,0,0,0,3.08-1.76,7.04,7.04,0,0,0,1.82-2.64,8.912,8.912,0,0,0,.59-3.32A12.23,12.23,0,0,0,873.26,580.12Zm-3.45-28.74q-2.535-1.905-7.98-1.91H852.6V565.6h9.76q5.055-.09,7.51-2.14a7.134,7.134,0,0,0,2.46-5.82Q872.33,553.29,869.81,551.38Zm0,0q-2.535-1.905-7.98-1.91H852.6V565.6h9.76q5.055-.09,7.51-2.14a7.134,7.134,0,0,0,2.46-5.82Q872.33,553.29,869.81,551.38Zm3.45,28.74a6.85,6.85,0,0,0-4.57-4.59,13.435,13.435,0,0,0-4.31-.62H852.6v17.27h11.3a13.658,13.658,0,0,0,4.39-.63,8.791,8.791,0,0,0,3.08-1.76,7.04,7.04,0,0,0,1.82-2.64,8.912,8.912,0,0,0,.59-3.32A12.23,12.23,0,0,0,873.26,580.12Zm59.19-26.08a12.728,12.728,0,0,0-20.57,0q-3.6,5.235-3.6,15.29v2.9a37.4,37.4,0,0,0,.94,8.86,19.82,19.82,0,0,0,2.73,6.46,11.833,11.833,0,0,0,4.37,3.95,12.667,12.667,0,0,0,5.93,1.34,11.6,11.6,0,0,0,10.24-5.27q3.57-5.28,3.56-15.34v-2.9Q936.05,559.265,932.45,554.04Zm0,0a12.728,12.728,0,0,0-20.57,0q-3.6,5.235-3.6,15.29v2.9a37.4,37.4,0,0,0,.94,8.86,19.82,19.82,0,0,0,2.73,6.46,11.833,11.833,0,0,0,4.37,3.95,12.667,12.667,0,0,0,5.93,1.34,11.6,11.6,0,0,0,10.24-5.27q3.57-5.28,3.56-15.34v-2.9Q936.05,559.265,932.45,554.04Zm-59.19,26.08a6.85,6.85,0,0,0-4.57-4.59,13.435,13.435,0,0,0-4.31-.62H852.6v17.27h11.3a13.658,13.658,0,0,0,4.39-.63,8.791,8.791,0,0,0,3.08-1.76,7.04,7.04,0,0,0,1.82-2.64,8.912,8.912,0,0,0,.59-3.32A12.23,12.23,0,0,0,873.26,580.12Zm-3.45-28.74q-2.535-1.905-7.98-1.91H852.6V565.6h9.76q5.055-.09,7.51-2.14a7.134,7.134,0,0,0,2.46-5.82Q872.33,553.29,869.81,551.38Zm0,0q-2.535-1.905-7.98-1.91H852.6V565.6h9.76q5.055-.09,7.51-2.14a7.134,7.134,0,0,0,2.46-5.82Q872.33,553.29,869.81,551.38Zm3.45,28.74a6.85,6.85,0,0,0-4.57-4.59,13.435,13.435,0,0,0-4.31-.62H852.6v17.27h11.3a13.658,13.658,0,0,0,4.39-.63,8.791,8.791,0,0,0,3.08-1.76,7.04,7.04,0,0,0,1.82-2.64,8.912,8.912,0,0,0,.59-3.32A12.23,12.23,0,0,0,873.26,580.12Zm42.75-124.06q-2.565-2.6-7.88-2.59H897.54v19.2h10.63a13.7,13.7,0,0,0,4.55-.68,8.728,8.728,0,0,0,3.25-1.93,8.187,8.187,0,0,0,1.96-2.99,10.871,10.871,0,0,0,.66-3.89A9.648,9.648,0,0,0,916.01,456.06Zm16.44,97.98a12.728,12.728,0,0,0-20.57,0q-3.6,5.235-3.6,15.29v2.9a37.4,37.4,0,0,0,.94,8.86,19.82,19.82,0,0,0,2.73,6.46,11.833,11.833,0,0,0,4.37,3.95,12.667,12.667,0,0,0,5.93,1.34,11.6,11.6,0,0,0,10.24-5.27q3.57-5.28,3.56-15.34v-2.9Q936.05,559.265,932.45,554.04Zm0,0a12.728,12.728,0,0,0-20.57,0q-3.6,5.235-3.6,15.29v2.9a37.4,37.4,0,0,0,.94,8.86,19.82,19.82,0,0,0,2.73,6.46,11.833,11.833,0,0,0,4.37,3.95,12.667,12.667,0,0,0,5.93,1.34,11.6,11.6,0,0,0,10.24-5.27q3.57-5.28,3.56-15.34v-2.9Q936.05,559.265,932.45,554.04Zm-59.19,26.08a6.85,6.85,0,0,0-4.57-4.59,13.435,13.435,0,0,0-4.31-.62H852.6v17.27h11.3a13.658,13.658,0,0,0,4.39-.63,8.791,8.791,0,0,0,3.08-1.76,7.04,7.04,0,0,0,1.82-2.64,8.912,8.912,0,0,0,.59-3.32A12.23,12.23,0,0,0,873.26,580.12Zm-3.39-16.66a7.134,7.134,0,0,0,2.46-5.82q0-4.35-2.52-6.26t-7.98-1.91H852.6V565.6h9.76Q867.415,565.51,869.87,563.46Zm46.14-107.4q-2.565-2.6-7.88-2.59H897.54v19.2h10.63a13.7,13.7,0,0,0,4.55-.68,8.728,8.728,0,0,0,3.25-1.93,8.187,8.187,0,0,0,1.96-2.99,10.871,10.871,0,0,0,.66-3.89A9.648,9.648,0,0,0,916.01,456.06ZM0,0V1080H1920V0ZM991.09,442.79h42.81v10.68h-29.62v15.25h25.3v10.32h-25.3v17.14h29.71v10.59h-42.9Zm-106.74,0h23.78a36.441,36.441,0,0,1,9.93,1.25,20.911,20.911,0,0,1,7.42,3.69,16.052,16.052,0,0,1,4.66,6.05,20,20,0,0,1,1.63,8.35,23,23,0,0,1-.79,6.3,16.464,16.464,0,0,1-5.89,8.77,23.806,23.806,0,0,1-4.75,2.81l13.85,26.15v.61H920.04l-12-23.42h-10.5v23.42H884.35Zm-108.68,0h24.97a30.341,30.341,0,0,1,10.13,1.58,21.894,21.894,0,0,1,7.55,4.42,18.917,18.917,0,0,1,4.73,6.72,21.763,21.763,0,0,1,1.62,8.46,20.857,20.857,0,0,1-1.62,8.39,17.352,17.352,0,0,1-4.73,6.38,21.755,21.755,0,0,1-7.55,4.06,33.268,33.268,0,0,1-10.13,1.43H788.86v22.54H775.67ZM752.85,602.77H709.96V538.79h42.8v10.68H723.14v15.25h25.31v10.33H723.14v17.13h29.71Zm75.05,0H814.68V585.28L816,555.09l-17.28,47.68h-9.05l-17.22-47.63,1.31,30.14v17.49H760.58V538.79h17.23l16.43,46.41,16.35-46.41H827.9Zm5.83-159.98h42.8v10.68H846.91v15.25h25.31v10.32H846.91v17.14h29.71v10.59H833.73Zm47.24,155.24q-6,4.74-17.07,4.74H839.42V538.79h22.41a43.125,43.125,0,0,1,9.98,1.05,21.369,21.369,0,0,1,7.44,3.23,14.312,14.312,0,0,1,4.66,5.48,17.554,17.554,0,0,1,1.61,7.77,16.216,16.216,0,0,1-.55,4.22,13.921,13.921,0,0,1-1.67,3.78,13.743,13.743,0,0,1-2.84,3.19,14.694,14.694,0,0,1-4.08,2.35,14.215,14.215,0,0,1,4.81,2.13,13.29,13.29,0,0,1,3.29,3.32,13.019,13.019,0,0,1,1.89,4.11,17.3,17.3,0,0,1,.6,4.54Q886.97,593.29,880.97,598.03Zm68.44-25.8a40.988,40.988,0,0,1-1.97,13.16,28.624,28.624,0,0,1-5.56,9.87,24.18,24.18,0,0,1-8.59,6.22,29.142,29.142,0,0,1-22.07,0,24.6,24.6,0,0,1-8.63-6.22,28.621,28.621,0,0,1-5.65-9.87,39.88,39.88,0,0,1-2.02-13.16v-2.81a40.556,40.556,0,0,1,2-13.14,28.912,28.912,0,0,1,5.6-9.93,24.119,24.119,0,0,1,8.62-6.26,28.993,28.993,0,0,1,22.06,0,24.083,24.083,0,0,1,8.61,6.26,28.91,28.91,0,0,1,5.6,9.93,40.285,40.285,0,0,1,2,13.14Zm5.56-65.46H941.79V442.79h41.66v10.68H954.97v16.52h25.31v10.64H954.97Zm19.73,54.36a36.243,36.243,0,0,0,9.47,3.98,62.58,62.58,0,0,1,9.21,3.61,27.615,27.615,0,0,1,6.64,4.48,17.137,17.137,0,0,1,4.02,5.62,17.668,17.668,0,0,1,1.36,7.08,16.528,16.528,0,0,1-1.65,7.51,15.547,15.547,0,0,1-4.68,5.56,21.994,21.994,0,0,1-7.32,3.47,34.944,34.944,0,0,1-9.55,1.21,36.577,36.577,0,0,1-6.33-.55,29.94,29.94,0,0,1-6.04-1.69,25.781,25.781,0,0,1-5.34-2.86,19.622,19.622,0,0,1-4.29-4.04,18.461,18.461,0,0,1-2.86-5.29,20.119,20.119,0,0,1-1.03-6.57h13.23a11.9,11.9,0,0,0,.92,4.92,8.38,8.38,0,0,0,2.57,3.27,10.656,10.656,0,0,0,3.98,1.83,21.823,21.823,0,0,0,5.19.57,16.152,16.152,0,0,0,4.43-.55,9.086,9.086,0,0,0,3.12-1.52,6.035,6.035,0,0,0,1.83-2.3,7.169,7.169,0,0,0,.59-2.88,8.842,8.842,0,0,0-.48-3.01,5.878,5.878,0,0,0-1.87-2.49,17.1,17.1,0,0,0-3.82-2.24,61.046,61.046,0,0,0-6.31-2.33,75.829,75.829,0,0,1-8.28-3.16,30.293,30.293,0,0,1-6.81-4.15,18.607,18.607,0,0,1-4.62-5.52,15.038,15.038,0,0,1-1.69-7.29,15.507,15.507,0,0,1,1.74-7.32,16.439,16.439,0,0,1,4.87-5.65,24.047,24.047,0,0,1,7.47-3.62,32.905,32.905,0,0,1,9.52-1.3,30.1,30.1,0,0,1,9.67,1.47,22.275,22.275,0,0,1,7.42,4.11,18.241,18.241,0,0,1,4.75,6.26,18.8,18.8,0,0,1,1.67,7.94H992.22a10.756,10.756,0,0,0-.64-3.74,7.644,7.644,0,0,0-1.96-2.94,9.165,9.165,0,0,0-3.29-1.92,14.445,14.445,0,0,0-4.66-.68,15.906,15.906,0,0,0-4.51.57,9.281,9.281,0,0,0-3.16,1.59,6.71,6.71,0,0,0-1.89,2.37,6.825,6.825,0,0,0-.64,2.9Q971.47,559.005,974.7,561.13Zm55.33,0a35.942,35.942,0,0,0,9.47,3.98,63.019,63.019,0,0,1,9.21,3.61,27.276,27.276,0,0,1,6.62,4.48,16.742,16.742,0,0,1,4.03,5.62,17.5,17.5,0,0,1,1.37,7.08,16.4,16.4,0,0,1-1.66,7.51,15.418,15.418,0,0,1-4.67,5.56,21.954,21.954,0,0,1-7.33,3.47,34.944,34.944,0,0,1-9.55,1.21,36.3,36.3,0,0,1-6.32-.55,29.852,29.852,0,0,1-6.05-1.69,25.781,25.781,0,0,1-5.34-2.86,19.571,19.571,0,0,1-4.28-4.04,18.221,18.221,0,0,1-2.86-5.29,19.858,19.858,0,0,1-1.03-6.57h13.23a11.909,11.909,0,0,0,.91,4.92,8.495,8.495,0,0,0,2.58,3.27,10.609,10.609,0,0,0,3.97,1.83,21.943,21.943,0,0,0,5.19.57,16.227,16.227,0,0,0,4.44-.55,8.943,8.943,0,0,0,3.11-1.52,5.968,5.968,0,0,0,1.84-2.3,7.342,7.342,0,0,0,.59-2.88,9.1,9.1,0,0,0-.48-3.01,6.048,6.048,0,0,0-1.87-2.49,17.071,17.071,0,0,0-3.84-2.24,58.8,58.8,0,0,0-6.29-2.33,75.222,75.222,0,0,1-8.29-3.16,30.749,30.749,0,0,1-6.81-4.15,18.57,18.57,0,0,1-4.61-5.52,15.038,15.038,0,0,1-1.69-7.29,15.62,15.62,0,0,1,1.73-7.32,16.578,16.578,0,0,1,4.88-5.65,23.941,23.941,0,0,1,7.47-3.62,32.857,32.857,0,0,1,9.52-1.3,30.039,30.039,0,0,1,9.66,1.47,22.177,22.177,0,0,1,7.42,4.11,18.121,18.121,0,0,1,4.75,6.26,18.651,18.651,0,0,1,1.68,7.94h-13.2a10.993,10.993,0,0,0-.62-3.74,7.758,7.758,0,0,0-1.96-2.94,9.3,9.3,0,0,0-3.3-1.92,14.424,14.424,0,0,0-4.65-.68,15.906,15.906,0,0,0-4.51.57,9.335,9.335,0,0,0-3.17,1.59,6.573,6.573,0,0,0-1.88,2.37,6.688,6.688,0,0,0-.65,2.9C1026.79,557.95,1027.88,559.71,1030.03,561.13Zm53.64,41.64h-13.19V538.79h13.19Zm-29.8-117.13a18.3,18.3,0,0,0,2.29,6.24,9.893,9.893,0,0,0,4.04,3.75,13.1,13.1,0,0,0,6,1.26,18.1,18.1,0,0,0,5.37-.71,9.115,9.115,0,0,0,6.14-5.71,17.654,17.654,0,0,0,1.06-5.01h13.18a26.388,26.388,0,0,1-2.2,8.97,20.873,20.873,0,0,1-5.1,7,23.056,23.056,0,0,1-7.88,4.57,31.483,31.483,0,0,1-10.57,1.65,27.362,27.362,0,0,1-11.05-2.13,22.638,22.638,0,0,1-8.32-6.13,27.645,27.645,0,0,1-5.22-9.69,41.566,41.566,0,0,1-1.83-12.76v-4.22a40.574,40.574,0,0,1,1.9-12.79,27.993,27.993,0,0,1,5.33-9.71,23.239,23.239,0,0,1,8.38-6.16,27.162,27.162,0,0,1,10.98-2.15,30.641,30.641,0,0,1,10.57,1.69,22.734,22.734,0,0,1,7.8,4.71,21.376,21.376,0,0,1,5.01,7.16,29.958,29.958,0,0,1,2.28,9.03h-13.18a19.406,19.406,0,0,0-.99-5.06,10.017,10.017,0,0,0-2.21-3.69,9.272,9.272,0,0,0-3.74-2.26,17.591,17.591,0,0,0-5.54-.77q-6.675,0-9.95,4.86t-3.27,15.05v4.31A46.423,46.423,0,0,0,1053.87,485.64Zm41.51-42.85h52.12v10.68h-19.6v53.3h-13.19v-53.3h-19.33Zm52.53,159.98h-13.18l-25.67-42.1v42.1h-13.18V538.79h13.18l25.71,42.19V538.79h13.14Zm27.15-14.85q3.84,5.145,11.22,5.14a23.737,23.737,0,0,0,4.13-.31,17.509,17.509,0,0,0,3.01-.77,9.936,9.936,0,0,0,2.09-1.01,9.082,9.082,0,0,0,1.36-1.07V578.87h-12v-9.71h25.17v25.53a20.921,20.921,0,0,1-3.11,2.92,23.518,23.518,0,0,1-4.96,2.9,37.192,37.192,0,0,1-7.06,2.24,43.524,43.524,0,0,1-9.34.9,30.275,30.275,0,0,1-11.31-2.04,23.681,23.681,0,0,1-8.77-6,27.5,27.5,0,0,1-5.66-9.71,40.468,40.468,0,0,1-1.98-13.19v-3.77a41.811,41.811,0,0,1,1.91-13.21,27.271,27.271,0,0,1,5.4-9.73,22.64,22.64,0,0,1,8.46-6.02,28.411,28.411,0,0,1,11.03-2.07,33.385,33.385,0,0,1,10.79,1.56,21.1,21.1,0,0,1,7.59,4.37,19.7,19.7,0,0,1,4.77,6.73,28.817,28.817,0,0,1,2.24,8.57h-12.82a19.191,19.191,0,0,0-1.23-4.38,10.211,10.211,0,0,0-2.28-3.34,10.017,10.017,0,0,0-3.59-2.13,15.339,15.339,0,0,0-5.08-.74q-6.765,0-10.28,5.11-3.51,5.13-3.51,15.19v3.86Q1171.25,582.775,1175.06,587.92ZM922.17,548.81a11.748,11.748,0,0,0-10.29,5.23q-3.6,5.235-3.6,15.29v2.9a37.4,37.4,0,0,0,.94,8.86,19.82,19.82,0,0,0,2.73,6.46,11.833,11.833,0,0,0,4.37,3.95,12.667,12.667,0,0,0,5.93,1.34,11.6,11.6,0,0,0,10.24-5.27q3.57-5.28,3.56-15.34v-2.9q0-10.065-3.6-15.29A11.731,11.731,0,0,0,922.17,548.81Zm-9.45-76.82a8.728,8.728,0,0,0,3.25-1.93,8.187,8.187,0,0,0,1.96-2.99,10.871,10.871,0,0,0,.66-3.89,9.648,9.648,0,0,0-2.58-7.12q-2.565-2.6-7.88-2.59H897.54v19.2h10.63A13.7,13.7,0,0,0,912.72,471.99ZM871.61,577.31a7.177,7.177,0,0,0-2.92-1.78,13.435,13.435,0,0,0-4.31-.62H852.6v17.27h11.3a13.658,13.658,0,0,0,4.39-.63,8.791,8.791,0,0,0,3.08-1.76,7.04,7.04,0,0,0,1.82-2.64,8.912,8.912,0,0,0,.59-3.32,12.23,12.23,0,0,0-.52-3.71A7.244,7.244,0,0,0,871.61,577.31Zm-1.74-13.85a7.134,7.134,0,0,0,2.46-5.82q0-4.35-2.52-6.26t-7.98-1.91H852.6V565.6h9.76Q867.415,565.51,869.87,563.46Zm-64.38-90.61a8.826,8.826,0,0,0,3.34-1.96,7.531,7.531,0,0,0,1.91-3.01,11.462,11.462,0,0,0,.62-3.82,12.939,12.939,0,0,0-.62-3.98,9.351,9.351,0,0,0-1.91-3.38,9.148,9.148,0,0,0-3.34-2.35,12.143,12.143,0,0,0-4.85-.88H788.86v20.08h11.78A14.912,14.912,0,0,0,805.49,472.85Zm110.52-16.79q-2.565-2.6-7.88-2.59H897.54v19.2h10.63a13.7,13.7,0,0,0,4.55-.68,8.728,8.728,0,0,0,3.25-1.93,8.187,8.187,0,0,0,1.96-2.99,10.871,10.871,0,0,0,.66-3.89A9.648,9.648,0,0,0,916.01,456.06Zm-46.2,95.32q-2.535-1.905-7.98-1.91H852.6V565.6h9.76q5.055-.09,7.51-2.14a7.134,7.134,0,0,0,2.46-5.82Q872.33,553.29,869.81,551.38Zm3.45,28.74a6.85,6.85,0,0,0-4.57-4.59,13.435,13.435,0,0,0-4.31-.62H852.6v17.27h11.3a13.658,13.658,0,0,0,4.39-.63,8.791,8.791,0,0,0,3.08-1.76,7.04,7.04,0,0,0,1.82-2.64,8.912,8.912,0,0,0,.59-3.32A12.23,12.23,0,0,0,873.26,580.12Zm59.19-26.08a12.728,12.728,0,0,0-20.57,0q-3.6,5.235-3.6,15.29v2.9a37.4,37.4,0,0,0,.94,8.86,19.82,19.82,0,0,0,2.73,6.46,11.833,11.833,0,0,0,4.37,3.95,12.667,12.667,0,0,0,5.93,1.34,11.6,11.6,0,0,0,10.24-5.27q3.57-5.28,3.56-15.34v-2.9Q936.05,559.265,932.45,554.04Zm0,0a12.728,12.728,0,0,0-20.57,0q-3.6,5.235-3.6,15.29v2.9a37.4,37.4,0,0,0,.94,8.86,19.82,19.82,0,0,0,2.73,6.46,11.833,11.833,0,0,0,4.37,3.95,12.667,12.667,0,0,0,5.93,1.34,11.6,11.6,0,0,0,10.24-5.27q3.57-5.28,3.56-15.34v-2.9Q936.05,559.265,932.45,554.04Zm-16.44-97.98q-2.565-2.6-7.88-2.59H897.54v19.2h10.63a13.7,13.7,0,0,0,4.55-.68,8.728,8.728,0,0,0,3.25-1.93,8.187,8.187,0,0,0,1.96-2.99,10.871,10.871,0,0,0,.66-3.89A9.648,9.648,0,0,0,916.01,456.06ZM873.26,580.12a6.85,6.85,0,0,0-4.57-4.59,13.435,13.435,0,0,0-4.31-.62H852.6v17.27h11.3a13.658,13.658,0,0,0,4.39-.63,8.791,8.791,0,0,0,3.08-1.76,7.04,7.04,0,0,0,1.82-2.64,8.912,8.912,0,0,0,.59-3.32A12.23,12.23,0,0,0,873.26,580.12Zm-3.45-28.74q-2.535-1.905-7.98-1.91H852.6V565.6h9.76q5.055-.09,7.51-2.14a7.134,7.134,0,0,0,2.46-5.82Q872.33,553.29,869.81,551.38Zm0,0q-2.535-1.905-7.98-1.91H852.6V565.6h9.76q5.055-.09,7.51-2.14a7.134,7.134,0,0,0,2.46-5.82Q872.33,553.29,869.81,551.38Zm3.45,28.74a6.85,6.85,0,0,0-4.57-4.59,13.435,13.435,0,0,0-4.31-.62H852.6v17.27h11.3a13.658,13.658,0,0,0,4.39-.63,8.791,8.791,0,0,0,3.08-1.76,7.04,7.04,0,0,0,1.82-2.64,8.912,8.912,0,0,0,.59-3.32A12.23,12.23,0,0,0,873.26,580.12Zm59.19-26.08a12.728,12.728,0,0,0-20.57,0q-3.6,5.235-3.6,15.29v2.9a37.4,37.4,0,0,0,.94,8.86,19.82,19.82,0,0,0,2.73,6.46,11.833,11.833,0,0,0,4.37,3.95,12.667,12.667,0,0,0,5.93,1.34,11.6,11.6,0,0,0,10.24-5.27q3.57-5.28,3.56-15.34v-2.9Q936.05,559.265,932.45,554.04Zm0,0a12.728,12.728,0,0,0-20.57,0q-3.6,5.235-3.6,15.29v2.9a37.4,37.4,0,0,0,.94,8.86,19.82,19.82,0,0,0,2.73,6.46,11.833,11.833,0,0,0,4.37,3.95,12.667,12.667,0,0,0,5.93,1.34,11.6,11.6,0,0,0,10.24-5.27q3.57-5.28,3.56-15.34v-2.9Q936.05,559.265,932.45,554.04Zm-59.19,26.08a6.85,6.85,0,0,0-4.57-4.59,13.435,13.435,0,0,0-4.31-.62H852.6v17.27h11.3a13.658,13.658,0,0,0,4.39-.63,8.791,8.791,0,0,0,3.08-1.76,7.04,7.04,0,0,0,1.82-2.64,8.912,8.912,0,0,0,.59-3.32A12.23,12.23,0,0,0,873.26,580.12Zm-3.45-28.74q-2.535-1.905-7.98-1.91H852.6V565.6h9.76q5.055-.09,7.51-2.14a7.134,7.134,0,0,0,2.46-5.82Q872.33,553.29,869.81,551.38Zm0,0q-2.535-1.905-7.98-1.91H852.6V565.6h9.76q5.055-.09,7.51-2.14a7.134,7.134,0,0,0,2.46-5.82Q872.33,553.29,869.81,551.38Zm3.45,28.74a6.85,6.85,0,0,0-4.57-4.59,13.435,13.435,0,0,0-4.31-.62H852.6v17.27h11.3a13.658,13.658,0,0,0,4.39-.63,8.791,8.791,0,0,0,3.08-1.76,7.04,7.04,0,0,0,1.82-2.64,8.912,8.912,0,0,0,.59-3.32A12.23,12.23,0,0,0,873.26,580.12Zm59.19-26.08a12.728,12.728,0,0,0-20.57,0q-3.6,5.235-3.6,15.29v2.9a37.4,37.4,0,0,0,.94,8.86,19.82,19.82,0,0,0,2.73,6.46,11.833,11.833,0,0,0,4.37,3.95,12.667,12.667,0,0,0,5.93,1.34,11.6,11.6,0,0,0,10.24-5.27q3.57-5.28,3.56-15.34v-2.9Q936.05,559.265,932.45,554.04Zm0,0a12.728,12.728,0,0,0-20.57,0q-3.6,5.235-3.6,15.29v2.9a37.4,37.4,0,0,0,.94,8.86,19.82,19.82,0,0,0,2.73,6.46,11.833,11.833,0,0,0,4.37,3.95,12.667,12.667,0,0,0,5.93,1.34,11.6,11.6,0,0,0,10.24-5.27q3.57-5.28,3.56-15.34v-2.9Q936.05,559.265,932.45,554.04Zm-59.19,26.08a6.85,6.85,0,0,0-4.57-4.59,13.435,13.435,0,0,0-4.31-.62H852.6v17.27h11.3a13.658,13.658,0,0,0,4.39-.63,8.791,8.791,0,0,0,3.08-1.76,7.04,7.04,0,0,0,1.82-2.64,8.912,8.912,0,0,0,.59-3.32A12.23,12.23,0,0,0,873.26,580.12Zm-3.45-28.74q-2.535-1.905-7.98-1.91H852.6V565.6h9.76q5.055-.09,7.51-2.14a7.134,7.134,0,0,0,2.46-5.82Q872.33,553.29,869.81,551.38Zm0,0q-2.535-1.905-7.98-1.91H852.6V565.6h9.76q5.055-.09,7.51-2.14a7.134,7.134,0,0,0,2.46-5.82Q872.33,553.29,869.81,551.38Zm3.45,28.74a6.85,6.85,0,0,0-4.57-4.59,13.435,13.435,0,0,0-4.31-.62H852.6v17.27h11.3a13.658,13.658,0,0,0,4.39-.63,8.791,8.791,0,0,0,3.08-1.76,7.04,7.04,0,0,0,1.82-2.64,8.912,8.912,0,0,0,.59-3.32A12.23,12.23,0,0,0,873.26,580.12Zm59.19-26.08a12.728,12.728,0,0,0-20.57,0q-3.6,5.235-3.6,15.29v2.9a37.4,37.4,0,0,0,.94,8.86,19.82,19.82,0,0,0,2.73,6.46,11.833,11.833,0,0,0,4.37,3.95,12.667,12.667,0,0,0,5.93,1.34,11.6,11.6,0,0,0,10.24-5.27q3.57-5.28,3.56-15.34v-2.9Q936.05,559.265,932.45,554.04Zm0,0a12.728,12.728,0,0,0-20.57,0q-3.6,5.235-3.6,15.29v2.9a37.4,37.4,0,0,0,.94,8.86,19.82,19.82,0,0,0,2.73,6.46,11.833,11.833,0,0,0,4.37,3.95,12.667,12.667,0,0,0,5.93,1.34,11.6,11.6,0,0,0,10.24-5.27q3.57-5.28,3.56-15.34v-2.9Q936.05,559.265,932.45,554.04Zm-59.19,26.08a6.85,6.85,0,0,0-4.57-4.59,13.435,13.435,0,0,0-4.31-.62H852.6v17.27h11.3a13.658,13.658,0,0,0,4.39-.63,8.791,8.791,0,0,0,3.08-1.76,7.04,7.04,0,0,0,1.82-2.64,8.912,8.912,0,0,0,.59-3.32A12.23,12.23,0,0,0,873.26,580.12Zm-3.45-28.74q-2.535-1.905-7.98-1.91H852.6V565.6h9.76q5.055-.09,7.51-2.14a7.134,7.134,0,0,0,2.46-5.82Q872.33,553.29,869.81,551.38Zm0,0q-2.535-1.905-7.98-1.91H852.6V565.6h9.76q5.055-.09,7.51-2.14a7.134,7.134,0,0,0,2.46-5.82Q872.33,553.29,869.81,551.38Zm3.45,28.74a6.85,6.85,0,0,0-4.57-4.59,13.435,13.435,0,0,0-4.31-.62H852.6v17.27h11.3a13.658,13.658,0,0,0,4.39-.63,8.791,8.791,0,0,0,3.08-1.76,7.04,7.04,0,0,0,1.82-2.64,8.912,8.912,0,0,0,.59-3.32A12.23,12.23,0,0,0,873.26,580.12Zm59.19-26.08a12.728,12.728,0,0,0-20.57,0q-3.6,5.235-3.6,15.29v2.9a37.4,37.4,0,0,0,.94,8.86,19.82,19.82,0,0,0,2.73,6.46,11.833,11.833,0,0,0,4.37,3.95,12.667,12.667,0,0,0,5.93,1.34,11.6,11.6,0,0,0,10.24-5.27q3.57-5.28,3.56-15.34v-2.9Q936.05,559.265,932.45,554.04Zm0,0a12.728,12.728,0,0,0-20.57,0q-3.6,5.235-3.6,15.29v2.9a37.4,37.4,0,0,0,.94,8.86,19.82,19.82,0,0,0,2.73,6.46,11.833,11.833,0,0,0,4.37,3.95,12.667,12.667,0,0,0,5.93,1.34,11.6,11.6,0,0,0,10.24-5.27q3.57-5.28,3.56-15.34v-2.9Q936.05,559.265,932.45,554.04Zm-59.19,26.08a6.85,6.85,0,0,0-4.57-4.59,13.435,13.435,0,0,0-4.31-.62H852.6v17.27h11.3a13.658,13.658,0,0,0,4.39-.63,8.791,8.791,0,0,0,3.08-1.76,7.04,7.04,0,0,0,1.82-2.64,8.912,8.912,0,0,0,.59-3.32A12.23,12.23,0,0,0,873.26,580.12Zm-3.45-28.74q-2.535-1.905-7.98-1.91H852.6V565.6h9.76q5.055-.09,7.51-2.14a7.134,7.134,0,0,0,2.46-5.82Q872.33,553.29,869.81,551.38Zm0,0q-2.535-1.905-7.98-1.91H852.6V565.6h9.76q5.055-.09,7.51-2.14a7.134,7.134,0,0,0,2.46-5.82Q872.33,553.29,869.81,551.38Zm3.45,28.74a6.85,6.85,0,0,0-4.57-4.59,13.435,13.435,0,0,0-4.31-.62H852.6v17.27h11.3a13.658,13.658,0,0,0,4.39-.63,8.791,8.791,0,0,0,3.08-1.76,7.04,7.04,0,0,0,1.82-2.64,8.912,8.912,0,0,0,.59-3.32A12.23,12.23,0,0,0,873.26,580.12Zm59.19-26.08a12.728,12.728,0,0,0-20.57,0q-3.6,5.235-3.6,15.29v2.9a37.4,37.4,0,0,0,.94,8.86,19.82,19.82,0,0,0,2.73,6.46,11.833,11.833,0,0,0,4.37,3.95,12.667,12.667,0,0,0,5.93,1.34,11.6,11.6,0,0,0,10.24-5.27q3.57-5.28,3.56-15.34v-2.9Q936.05,559.265,932.45,554.04Zm0,0a12.728,12.728,0,0,0-20.57,0q-3.6,5.235-3.6,15.29v2.9a37.4,37.4,0,0,0,.94,8.86,19.82,19.82,0,0,0,2.73,6.46,11.833,11.833,0,0,0,4.37,3.95,12.667,12.667,0,0,0,5.93,1.34,11.6,11.6,0,0,0,10.24-5.27q3.57-5.28,3.56-15.34v-2.9Q936.05,559.265,932.45,554.04Zm-59.19,26.08a6.85,6.85,0,0,0-4.57-4.59,13.435,13.435,0,0,0-4.31-.62H852.6v17.27h11.3a13.658,13.658,0,0,0,4.39-.63,8.791,8.791,0,0,0,3.08-1.76,7.04,7.04,0,0,0,1.82-2.64,8.912,8.912,0,0,0,.59-3.32A12.23,12.23,0,0,0,873.26,580.12Zm-3.45-28.74q-2.535-1.905-7.98-1.91H852.6V565.6h9.76q5.055-.09,7.51-2.14a7.134,7.134,0,0,0,2.46-5.82Q872.33,553.29,869.81,551.38Z" fill="#f2e7cd"/>
</svg>
